<svg width="20" height="20" viewBox="0 0 20 20" fill="none" xmlns="http://www.w3.org/2000/svg">
<path d="M5.7168 4.00841V2.29175" stroke="white" stroke-width="1.5" stroke-linecap="round" stroke-linejoin="round"/>
<path d="M14.2834 4.00841V2.29175" stroke="white" stroke-width="1.5" stroke-linecap="round" stroke-linejoin="round"/>
<path d="M4.95842 3.15009C3.48342 3.15009 2.29175 4.34175 2.29175 5.81675V15.0501C2.29175 16.5251 3.48342 17.7167 4.95842 17.7167H15.0501C16.5251 17.7167 17.7168 16.5251 17.7168 15.0501V5.81675C17.7084 4.34175 16.5168 3.15009 15.0418 3.15009H4.95842Z" stroke="white" stroke-width="1.5" stroke-linecap="round" stroke-linejoin="round"/>
<path d="M2.29175 6.58344H17.7084" stroke="white" stroke-width="1.5" stroke-linecap="round" stroke-linejoin="round"/>
<path fill-rule="evenodd" clip-rule="evenodd" d="M15.0001 10C14.5398 10 14.1667 9.62694 14.1667 9.16671C14.1667 8.70647 14.5398 8.33337 15.0001 8.33337C15.4603 8.33337 15.8334 8.70647 15.8334 9.16671C15.8334 9.62694 15.4603 10 15.0001 10Z" fill="white"/>
<path fill-rule="evenodd" clip-rule="evenodd" d="M11.6668 10C11.2066 10 10.8335 9.62694 10.8335 9.16671C10.8335 8.70647 11.2066 8.33337 11.6668 8.33337C12.1271 8.33337 12.5002 8.70647 12.5002 9.16671C12.5002 9.62694 12.1271 10 11.6668 10Z" fill="white"/>
<path fill-rule="evenodd" clip-rule="evenodd" d="M8.33333 10C7.8731 10 7.5 9.62694 7.5 9.16671C7.5 8.70647 7.8731 8.33337 8.33333 8.33337C8.79357 8.33337 9.16667 8.70647 9.16667 9.16671C9.16667 9.62694 8.79357 10 8.33333 10Z" fill="white"/>
<path fill-rule="evenodd" clip-rule="evenodd" d="M5.00008 10C4.53984 10 4.16675 9.62694 4.16675 9.16671C4.16675 8.70647 4.53984 8.33337 5.00008 8.33337C5.46032 8.33337 5.83341 8.70647 5.83341 9.16671C5.83341 9.62694 5.46032 10 5.00008 10Z" fill="white"/>
<path fill-rule="evenodd" clip-rule="evenodd" d="M15.0001 12.9084C14.5398 12.9084 14.1667 12.5353 14.1667 12.075C14.1667 11.6148 14.5398 11.2417 15.0001 11.2417C15.4603 11.2417 15.8334 11.6148 15.8334 12.075C15.8334 12.5353 15.4603 12.9084 15.0001 12.9084Z" fill="white"/>
<path fill-rule="evenodd" clip-rule="evenodd" d="M11.6668 12.9084C11.2066 12.9084 10.8335 12.5353 10.8335 12.075C10.8335 11.6148 11.2066 11.2417 11.6668 11.2417C12.1271 11.2417 12.5002 11.6148 12.5002 12.075C12.5002 12.5353 12.1271 12.9084 11.6668 12.9084Z" fill="white"/>
<path fill-rule="evenodd" clip-rule="evenodd" d="M8.33333 12.9084C7.8731 12.9084 7.5 12.5353 7.5 12.075C7.5 11.6148 7.8731 11.2417 8.33333 11.2417C8.79357 11.2417 9.16667 11.6148 9.16667 12.075C9.16667 12.5353 8.79357 12.9084 8.33333 12.9084Z" fill="white"/>
<path fill-rule="evenodd" clip-rule="evenodd" d="M5.00008 12.9084C4.53984 12.9084 4.16675 12.5353 4.16675 12.075C4.16675 11.6148 4.53984 11.2417 5.00008 11.2417C5.46032 11.2417 5.83341 11.6148 5.83341 12.075C5.83341 12.5353 5.46032 12.9084 5.00008 12.9084Z" fill="white"/>
<path fill-rule="evenodd" clip-rule="evenodd" d="M11.6668 15.8084C11.2066 15.8084 10.8335 15.4353 10.8335 14.9751C10.8335 14.5148 11.2066 14.1417 11.6668 14.1417C12.1271 14.1417 12.5002 14.5148 12.5002 14.9751C12.5002 15.4353 12.1271 15.8084 11.6668 15.8084Z" fill="white"/>
<path fill-rule="evenodd" clip-rule="evenodd" d="M8.33333 15.8084C7.8731 15.8084 7.5 15.4353 7.5 14.9751C7.5 14.5148 7.8731 14.1417 8.33333 14.1417C8.79357 14.1417 9.16667 14.5148 9.16667 14.9751C9.16667 15.4353 8.79357 15.8084 8.33333 15.8084Z" fill="white"/>
<path fill-rule="evenodd" clip-rule="evenodd" d="M5.00008 15.8084C4.53984 15.8084 4.16675 15.4353 4.16675 14.9751C4.16675 14.5148 4.53984 14.1417 5.00008 14.1417C5.46032 14.1417 5.83341 14.5148 5.83341 14.9751C5.83341 15.4353 5.46032 15.8084 5.00008 15.8084Z" fill="white"/>
</svg>
