<svg width="26" height="26" viewBox="0 0 26 26" fill="none" xmlns="http://www.w3.org/2000/svg">
<path d="M11.2665 22.3708C10.2049 21.905 9.38154 21.0491 9.08904 19.955C9.05654 19.8358 9.03487 19.7275 9.0132 19.63C8.95903 19.3483 8.92651 19.1316 8.92651 18.9583C8.92651 17.9291 9.32737 16.9216 10.064 16.12L12.2957 13.6175C12.2957 13.6175 12.5773 13.3033 12.8482 13C13.1298 13.3141 13.4007 13.6175 13.4007 13.6175L15.6323 16.12C16.369 16.9216 16.7699 17.9291 16.7699 18.9583C16.7699 19.1316 16.7374 19.3483 16.6832 19.63C16.6507 19.7275 16.629 19.8358 16.6073 19.955C16.3148 21.0491 15.4915 21.905 14.4299 22.3708C13.9207 22.5767 13.3899 22.7066 12.8374 22.75C12.2849 22.7825 11.7432 22.5875 11.2665 22.3708Z" stroke="white" stroke-width="1.5" stroke-linecap="round" stroke-linejoin="round"/>
<path d="M13.1732 3.47757C12.9999 3.18507 12.6641 2.97922 12.2741 2.97922C11.9924 2.97922 11.6999 3.1092 11.5157 3.3042L6.69489 8.72087C5.11323 10.4434 4.24658 12.6209 4.24658 14.8526C4.24658 15.2209 4.31157 15.6867 4.44157 16.2934C4.50657 16.51 4.54991 16.7267 4.61491 16.9867C5.53574 20.4209 8.88323 22.7717 12.7291 23.01C16.7916 23.0317 20.4857 20.5834 21.4174 16.9976C21.4932 16.7484 21.5474 16.4992 21.6124 16.2934C21.7207 15.73 21.7857 15.2751 21.7857 14.9176V14.7767C21.7857 12.4259 20.5941 9.77172 19.4891 8.06005L18.4599 6.48921C18.2974 6.21837 17.9832 6.06675 17.6366 6.05591C17.3007 6.05591 16.9866 6.20752 16.8132 6.46752L15.6432 8.12505C15.6216 8.12505 14.4949 5.99089 13.7691 4.61506C13.4224 3.96506 13.1732 3.47757 13.1732 3.47757Z" stroke="white" stroke-width="1.5" stroke-linecap="round" stroke-linejoin="round"/>
</svg>
