<svg width="26" height="26" viewBox="0 0 26 26" fill="none" xmlns="http://www.w3.org/2000/svg">
<path d="M9.98853 23.0209V16.5751C9.98853 15.9792 10.476 15.4917 11.0719 15.4917H14.9285C15.5244 15.4917 16.0119 15.9792 16.0119 16.5751V23.0209V23.0209H9.98853Z" stroke="white" stroke-width="1.5" stroke-linecap="round" stroke-linejoin="round"/>
<path d="M23.0209 19.6083C23.0209 21.4933 21.5692 23.0208 19.7709 23.0208H6.22925C4.43091 23.0208 2.97925 21.4933 2.97925 19.6083V12.3392C2.97925 11.3208 3.40175 10.3675 4.14925 9.71751L10.9201 3.77C12.1226 2.70834 13.8776 2.70834 15.0801 3.77L21.8509 9.71751C22.5984 10.3675 23.0209 11.3208 23.0209 12.3392V19.6083Z" stroke="white" stroke-width="1.5" stroke-linecap="round" stroke-linejoin="round"/>
</svg>
