<svg width="26" height="26" viewBox="0 0 26 26" fill="none" xmlns="http://www.w3.org/2000/svg">
<path d="M19.3809 23.0209H6.46758C4.53925 23.0209 2.97925 21.4609 2.97925 19.5326V6.46755C2.97925 4.53922 4.53925 2.97922 6.46758 2.97922H15.8926C17.8101 2.97922 19.3809 4.53922 19.3809 6.46755V23.0209Z" stroke="white" stroke-width="1.5" stroke-linecap="round" stroke-linejoin="round"/>
<path d="M23.0209 20.7242V15.1667C23.0209 13.325 21.385 11.83 19.3809 11.83" stroke="white" stroke-width="1.5" stroke-linecap="round" stroke-linejoin="round"/>
<path d="M15.3943 23.0208H20.7785" stroke="white" stroke-width="1.5" stroke-linecap="round" stroke-linejoin="round"/>
<path d="M19.3809 18.2975V21.3525C19.3809 22.2733 20.1934 23.0208 21.2009 23.0208C22.2084 23.0208 23.0209 22.2733 23.0209 21.3525V18.2975" stroke="white" stroke-width="1.5" stroke-linecap="round" stroke-linejoin="round"/>
<path d="M7.4209 7.44247H15.2101" stroke="white" stroke-width="1.5" stroke-linecap="round" stroke-linejoin="round"/>
<path d="M7.4209 13H15.2101" stroke="white" stroke-width="1.5" stroke-linecap="round" stroke-linejoin="round"/>
<path d="M7.45337 18.5467H9.67421" stroke="white" stroke-width="1.5" stroke-linecap="round" stroke-linejoin="round"/>
</svg>
