<svg width="30" height="30" viewBox="0 0 30 30" fill="none" xmlns="http://www.w3.org/2000/svg">
<path d="M6.625 11.8125C6.625 17.5375 14.125 25.9625 14.4375 26.3125C14.7375 26.65 15.2625 26.65 15.5625 26.3125C15.8875 25.9625 23.375 17.5375 23.375 11.8125C23.375 7.2 19.6125 3.4375 15 3.4375C10.3875 3.4375 6.625 7.2 6.625 11.8125Z" stroke="white" stroke-width="1.5" stroke-linecap="round" stroke-linejoin="round"/>
<path fill-rule="evenodd" clip-rule="evenodd" d="M15.4667 14.7378C13.8509 14.995 12.3325 13.8936 12.0753 12.2778C11.8181 10.662 12.9195 9.14368 14.5353 8.88648C16.1511 8.62929 17.6695 9.73066 17.9266 11.3465C18.1838 12.9623 17.0825 14.4806 15.4667 14.7378Z" stroke="white" stroke-width="1.5" stroke-linecap="round" stroke-linejoin="round"/>
</svg>
